<svg width="128" height="128" viewBox="0 0 128 128" version="1.1" xmlns="http://www.w3.org/2000/svg" xmlns:xlink="http://www.w3.org/1999/xlink">
<title>icon</title>
<desc>Created using Figma</desc>
<g id="Canvas" transform="translate(-81 -62)">
<g id="icon">
<g id="Group">
<g id="Trail lines">
<g id="Rectangle">
<use xlink:href="#path0_fill" transform="matrix(1 -5.53633e-17 5.56591e-17 1 97 150)" fill="#8F1523"/>
</g>
<g id="Rectangle">
<use xlink:href="#path1_fill" transform="matrix(1 -5.53633e-17 5.56591e-17 1 89 134)" fill="#BB2032"/>
</g>
<g id="Rectangle">
<use xlink:href="#path2_fill" transform="matrix(1 -5.53633e-17 5.56591e-17 1 81 118)" fill="#FC354C"/>
</g>
<g id="Rectangle">
<use xlink:href="#path3_fill" transform="matrix(1 -5.53633e-17 5.56591e-17 1 89 102)" fill="#BB2032"/>
</g>
<g id="Rectangle">
<use xlink:href="#path4_fill" transform="matrix(1 -5.53633e-17 5.56591e-17 1 97 86)" fill="#8F1523"/>
</g>
</g>
<g id="Subtract">
<use xlink:href="#path5_fill" transform="matrix(1 -5.50486e-17 5.59776e-17 1 113 62)" fill="#232A2D"/>
</g>
</g>
</g>
</g>
<defs>
<path id="path0_fill" d="M 0 3.72824C 0 1.66919 1.571 0 3.50893 0L 41.8 0C 43.7379 0 45.3089 1.66919 45.3089 3.72824L 45.3089 4.27176C 45.3089 6.33081 43.7379 8 41.8 8L 3.50893 8C 1.571 8 0 6.33081 0 4.27176L 0 3.72824Z"/>
<path id="path1_fill" d="M 0 3.72824C 0 1.66919 1.571 0 3.50893 0L 59.6851 0C 61.623 0 63.194 1.66919 63.194 3.72824L 63.194 4.27176C 63.194 6.33081 61.623 8 59.6851 8L 3.50893 8C 1.571 8 0 6.33081 0 4.27176L 0 3.72824Z"/>
<path id="path2_fill" d="M 0 3.72824C 0 1.66919 1.571 0 3.50893 0L 59.6851 0C 61.623 0 63.194 1.66919 63.194 3.72824L 63.194 4.27176C 63.194 6.33081 61.623 8 59.6851 8L 3.50893 8C 1.571 8 0 6.33081 0 4.27176L 0 3.72824Z"/>
<path id="path3_fill" d="M 0 3.72824C 0 1.66919 1.571 0 3.50893 0L 59.6851 0C 61.623 0 63.194 1.66919 63.194 3.72824L 63.194 4.27176C 63.194 6.33081 61.623 8 59.6851 8L 3.50893 8C 1.571 8 0 6.33081 0 4.27176L 0 3.72824Z"/>
<path id="path4_fill" d="M 0 3.72824C 0 1.66919 1.571 0 3.50893 0L 41.8 0C 43.7379 0 45.3089 1.66919 45.3089 3.72824L 45.3089 4.27176C 45.3089 6.33081 43.7379 8 41.8 8L 3.50893 8C 1.571 8 0 6.33081 0 4.27176L 0 3.72824Z"/>
<path id="path5_fill" d="M 37.2364 7.10543e-15C 50.2634 7.10543e-15 61.1871 2.74286 70.0074 8.22857C 78.9635 13.7143 85.5449 21.0286 89.7515 30.1714C 94.0938 39.2 96 49.1429 96 60C 96 71.3143 94.0938 81.4857 89.7515 90.5143C 85.5449 99.5429 79.0314 106.743 70.211 112.114C 61.3906 117.371 50.3991 120 37.2364 120L 4.89697 120C 3.81139 120 2.0748 119.657 1.26061 118.971C 0.44642 118.286 0 116.914 0 116L 2.84217e-14 4C 2.84217e-14 3.08571 0.44642 1.71429 1.26061 1.02857C 2.0748 0.342857 3.81139 7.10543e-15 4.89697 7.10543e-15L 37.2364 7.10543e-15Z"/>
</defs>
</svg>
